<?xml version="1.0" encoding="utf-8"?>
<!-- Svg Vector Icons : http://www.onlinewebfonts.com/icon -->
<!DOCTYPE svg PUBLIC "-//W3C//DTD SVG 1.1//EN" "http://www.w3.org/Graphics/SVG/1.1/DTD/svg11.dtd">
<svg version="1.1" xmlns="http://www.w3.org/2000/svg" xmlns:xlink="http://www.w3.org/1999/xlink" x="0px" y="0px" viewBox="0 0 1000 1000" enable-background="new 0 0 1000 1000" xml:space="preserve">
<metadata> Svg Vector Icons : http://www.onlinewebfonts.com/icon </metadata>
<g><g transform="translate(0.000000,511.000000) scale(0.100000,-0.100000)"><path d="M6384.4,4974.7c-157.4-54.5-278.4-133.2-389.4-256.3c-512.5-560.9-163.4-1466.9,593.2-1537.5c583.1-54.5,1073.4,472.2,978.6,1047.2c-60.5,361.2-294.6,641.6-629.5,744.5C6779.9,5021.1,6523.7,5023.1,6384.4,4974.7z"/><path d="M3979.3,4540.9c-181.6-56.5-328.9-106.9-328.9-113c0-8.1,88.8-90.8,197.7-185.6l195.7-173.5l195.7-34.3c522.6-88.8,920.1-262.3,1196.5-520.6c113-104.9,302.7-355.1,284.5-373.3c-2-4-310.7,102.9-684,236.1c-615.4,219.9-690.1,242.1-815.2,242.1c-242.1,0-262.3-16.1-996.8-756.7l-655.8-659.8l-76.7,52.5c-147.3,98.9-248.2,64.6-413.6-137.2c-58.5-72.7-115-139.2-125.1-145.3c-12.1-6-82.7,42.4-161.4,106.9c-78.7,64.6-171.5,137.2-205.8,163.4c-68.6,48.4-165.5,58.5-240.1,22.2c-42.4-20.2-944.3-1099.7-998.8-1194.5c-40.4-72.6-30.3-167.5,24.2-232C407.9,796,2141.2-642.7,2355-806.1c38.3-30.3,175.5-24.2,222,10.1c58.5,40.4,950.3,1123.9,986.7,1198.5c60.5,123.1,26.2,189.6-183.6,369.2l-189.7,157.4l121.1,149.3c66.6,80.7,129.1,171.5,141.2,199.7c32.3,84.8,0,175.6-88.8,262.3l-84.7,80.7l50.4,52.5c82.7,90.8,906,843.4,962.5,879.7c30.3,20.2,72.6,36.3,92.8,36.3c30.3,0,690.1-250.2,712.3-270.4c10.1-8.1-88.8-322.8-175.5-556.9c-213.9-579.1-688-1567.8-1238.9-2582.7c-332.9-611.4-359.2-653.7-427.8-700.2c-78.7-50.4-169.5-18.1-554.9,195.7c-181.6,100.9-484.3,260.3-671.9,355.1c-278.5,141.2-363.2,175.5-460,183.6c-300.6,28.2-540.8-201.8-540.8-516.5c0-163.4,50.4-274.4,171.5-379.3c48.4-42.4,534.7-316.8,1081.5-611.4c980.6-526.6,996.8-534.7,1129.9-540.8c183.6-10.1,268.3,22.2,407.6,155.4c153.3,145.3,286.5,330.9,728.4,998.8c195.7,298.6,365.2,534.7,373.3,524.6c38.3-42.4,897.9-1406.4,1039.1-1648.5l56.5-98.9l-8.1-748.6l-6.1-750.6l48.4-90.8c60.5-117,135.2-195.7,230-244.1c270.4-139.2,607.4,6,692.1,296.6c30.3,104.9,32.3,201.8,22.2,845.4c-12.1,738.5-32.3,1023-86.8,1218.7c-64.6,228-349.1,724.4-784.9,1374.1l-266.3,397.5l70.6,139.2c139.2,276.4,437.8,936.2,671.9,1491.1c133.2,310.7,252.2,589.2,266.3,619.5l24.2,54.5l393.4-163.5c379.3-159.4,399.5-165.4,554.9-165.4c129.1-2,177.6,8.1,246.2,44.4c84.7,44.4,1164.2,980.6,1422.5,1234.9c100.9,98.9,139.2,153.4,157.4,219.9c56.5,211.9-64.6,476.2-248.2,544.8c-80.7,32.3-234.1,28.2-339-8.1c-100.9-34.3-155.4-74.7-797-593.2c-254.2-203.8-490.3-381.4-524.6-391.4c-52.5-16.1-131.2,8.1-605.3,183.6c-298.6,111-684,254.2-857.5,316.8l-314.8,115l-24.2,145.3c-14.1,86.8-56.5,209.8-107,314.8c-68.6,143.3-115,203.8-296.6,385.4c-145.3,147.3-284.5,262.3-435.8,361.2c-219.9,145.3-659.8,371.3-756.6,391.5C4328.4,4639.7,4167,4601.4,3979.3,4540.9z M2433.7,1958.2c8.1-12.1,18.2-42.4,20.2-64.6c16.1-125.1,32.3-173.5,86.8-258.3c82.7-129.1,187.6-181.6,355.1-171.5c117,6,137.2,0,199.8-50.4c38.3-30.3,70.6-64.6,70.6-72.6c0-10.1-42.4-68.6-92.8-129.1l-92.8-113L2575,1433.6c-224,183.6-411.6,337-415.6,341c-4,4,36.3,60.5,90.8,127.1c78.7,96.9,102.9,117,131.2,100.9C2401.4,1992.5,2423.6,1972.3,2433.7,1958.2z"/></g></g>
</svg>