<?xml version="1.0" encoding="UTF-8" standalone="no"?>
<!-- Svg Vector Icons : http://www.onlinewebfonts.com/icon -->

<svg
   xmlns:dc="http://purl.org/dc/elements/1.1/"
   xmlns:cc="http://creativecommons.org/ns#"
   xmlns:rdf="http://www.w3.org/1999/02/22-rdf-syntax-ns#"
   xmlns:svg="http://www.w3.org/2000/svg"
   xmlns="http://www.w3.org/2000/svg"
   xmlns:sodipodi="http://sodipodi.sourceforge.net/DTD/sodipodi-0.dtd"
   xmlns:inkscape="http://www.inkscape.org/namespaces/inkscape"
   version="1.1"
   x="0px"
   y="0px"
   viewBox="0 0 1000 1000"
   enable-background="new 0 0 1000 1000"
   xml:space="preserve"
   id="svg12"
   sodipodi:docname="parayer.svg"
   inkscape:version="0.92.3 (2405546, 2018-03-11)"><defs
   id="defs16" /><sodipodi:namedview
   pagecolor="#ffffff"
   bordercolor="#666666"
   borderopacity="1"
   objecttolerance="10"
   gridtolerance="10"
   guidetolerance="10"
   inkscape:pageopacity="0"
   inkscape:pageshadow="2"
   inkscape:window-width="1920"
   inkscape:window-height="987"
   id="namedview14"
   showgrid="false"
   inkscape:zoom="0.236"
   inkscape:cx="-1872.8814"
   inkscape:cy="500"
   inkscape:window-x="0"
   inkscape:window-y="0"
   inkscape:window-maximized="1"
   inkscape:current-layer="svg12" />
<metadata
   id="metadata2"> Svg Vector Icons : http://www.onlinewebfonts.com/icon <rdf:RDF><cc:Work
     rdf:about=""><dc:format>image/svg+xml</dc:format><dc:type
       rdf:resource="http://purl.org/dc/dcmitype/StillImage" /></cc:Work></rdf:RDF></metadata>
<g
   id="g10"><g
     transform="translate(0.000000,511.000000) scale(0.100000,-0.100000)"
     id="g8"><path
       d="M6384.4,4974.7c-157.4-54.5-278.4-133.2-389.4-256.3c-512.5-560.9-163.4-1466.9,593.2-1537.5c583.1-54.5,1073.4,472.2,978.6,1047.2c-60.5,361.2-294.6,641.6-629.5,744.5C6779.9,5021.1,6523.7,5023.1,6384.4,4974.7z"
       id="path4" /><path
       d="M3979.3,4540.9c-181.6-56.5-328.9-106.9-328.9-113c0-8.1,88.8-90.8,197.7-185.6l195.7-173.5l195.7-34.3c522.6-88.8,920.1-262.3,1196.5-520.6c113-104.9,302.7-355.1,284.5-373.3c-2-4-310.7,102.9-684,236.1c-615.4,219.9-690.1,242.1-815.2,242.1c-242.1,0-262.3-16.1-996.8-756.7l-655.8-659.8l-76.7,52.5c-147.3,98.9-248.2,64.6-413.6-137.2c-58.5-72.7-115-139.2-125.1-145.3c-12.1-6-82.7,42.4-161.4,106.9c-78.7,64.6-171.5,137.2-205.8,163.4c-68.6,48.4-165.5,58.5-240.1,22.2c-42.4-20.2-944.3-1099.7-998.8-1194.5c-40.4-72.6-30.3-167.5,24.2-232C407.9,796,2141.2-642.7,2355-806.1c38.3-30.3,175.5-24.2,222,10.1c58.5,40.4,950.3,1123.9,986.7,1198.5c60.5,123.1,26.2,189.6-183.6,369.2l-189.7,157.4l121.1,149.3c66.6,80.7,129.1,171.5,141.2,199.7c32.3,84.8,0,175.6-88.8,262.3l-84.7,80.7l50.4,52.5c82.7,90.8,906,843.4,962.5,879.7c30.3,20.2,72.6,36.3,92.8,36.3c30.3,0,690.1-250.2,712.3-270.4c10.1-8.1-88.8-322.8-175.5-556.9c-213.9-579.1-688-1567.8-1238.9-2582.7c-332.9-611.4-359.2-653.7-427.8-700.2c-78.7-50.4-169.5-18.1-554.9,195.7c-181.6,100.9-484.3,260.3-671.9,355.1c-278.5,141.2-363.2,175.5-460,183.6c-300.6,28.2-540.8-201.8-540.8-516.5c0-163.4,50.4-274.4,171.5-379.3c48.4-42.4,534.7-316.8,1081.5-611.4c980.6-526.6,996.8-534.7,1129.9-540.8c183.6-10.1,268.3,22.2,407.6,155.4c153.3,145.3,286.5,330.9,728.4,998.8c195.7,298.6,365.2,534.7,373.3,524.6c38.3-42.4,897.9-1406.4,1039.1-1648.5l56.5-98.9l-8.1-748.6l-6.1-750.6l48.4-90.8c60.5-117,135.2-195.7,230-244.1c270.4-139.2,607.4,6,692.1,296.6c30.3,104.9,32.3,201.8,22.2,845.4c-12.1,738.5-32.3,1023-86.8,1218.7c-64.6,228-349.1,724.4-784.9,1374.1l-266.3,397.5l70.6,139.2c139.2,276.4,437.8,936.2,671.9,1491.1c133.2,310.7,252.2,589.2,266.3,619.5l24.2,54.5l393.4-163.5c379.3-159.4,399.5-165.4,554.9-165.4c129.1-2,177.6,8.1,246.2,44.4c84.7,44.4,1164.2,980.6,1422.5,1234.9c100.9,98.9,139.2,153.4,157.4,219.9c56.5,211.9-64.6,476.2-248.2,544.8c-80.7,32.3-234.1,28.2-339-8.1c-100.9-34.3-155.4-74.7-797-593.2c-254.2-203.8-490.3-381.4-524.6-391.4c-52.5-16.1-131.2,8.1-605.3,183.6c-298.6,111-684,254.2-857.5,316.8l-314.8,115l-24.2,145.3c-14.1,86.8-56.5,209.8-107,314.8c-68.6,143.3-115,203.8-296.6,385.4c-145.3,147.3-284.5,262.3-435.8,361.2c-219.9,145.3-659.8,371.3-756.6,391.5C4328.4,4639.7,4167,4601.4,3979.3,4540.9z M2433.7,1958.2c8.1-12.1,18.2-42.4,20.2-64.6c16.1-125.1,32.3-173.5,86.8-258.3c82.7-129.1,187.6-181.6,355.1-171.5c117,6,137.2,0,199.8-50.4c38.3-30.3,70.6-64.6,70.6-72.6c0-10.1-42.4-68.6-92.8-129.1l-92.8-113L2575,1433.6c-224,183.6-411.6,337-415.6,341c-4,4,36.3,60.5,90.8,127.1c78.7,96.9,102.9,117,131.2,100.9C2401.4,1992.5,2423.6,1972.3,2433.7,1958.2z"
       id="path6" /></g></g>
<path
   style="fill:#009688;stroke:none;stroke-width:4.237288px;stroke-linecap:butt;stroke-linejoin:miter;stroke-opacity:1;fill-opacity:1"
   d="M 645.50335,187.33492 C 617.92524,180.04322 601.49311,166.73505 588.92393,141.512 549.29251,61.982097 629.40497,-17.055893 708.65155,23.390177 728.25156,33.393679 736.34081,42.388493 747.13158,66.177894 777.33477,132.76406 715.93856,205.95812 645.50335,187.33492 Z"
   id="path823"
   inkscape:connector-curvature="0" /><path
   style="fill:#a0a0a0;stroke:none;stroke-width:4.237288px;stroke-linecap:butt;stroke-linejoin:miter;stroke-opacity:1"
   d="m 639.40678,184.09809 c -38.48655,-14.14198 -59.1906,-47.20758 -56.45543,-90.162641 2.85858,-44.893199 30.4761,-74.238017 73.20288,-77.781254 58.44277,-4.846529 99.49311,36.127348 94.65423,94.477915 -3.53681,42.64922 -35.62928,73.82543 -79.05124,76.79427 -10.80122,0.73849 -25.35891,-0.75923 -32.35044,-3.32829 z"
   id="path825"
   inkscape:connector-curvature="0" /><path
   style="fill:#a0a0a0;stroke:none;stroke-width:4.237288px;stroke-linecap:butt;stroke-linejoin:miter;stroke-opacity:1"
   d="M 630.9322,178.09576 C 596.66305,160.30915 584.61643,136.54646 587.14878,91.730237 588.47979,68.174585 590.93333,60.21089 600.87551,47.176019 615.41024,28.12 635.2641,19.05477 662.93356,18.840442 c 29.34695,-0.227322 47.92501,7.22777 64.93731,26.058354 16.71826,18.505111 21.4913,36.31481 18.71259,69.822454 -3.44421,41.53264 -36.25,70.04997 -80.52482,69.99841 -12.32802,-0.0144 -28.13491,-2.99511 -35.12644,-6.6239 z"
   id="path827"
   inkscape:connector-curvature="0" /><path
   style="fill:#009688;stroke:none;stroke-width:4.237288px;stroke-linecap:butt;stroke-linejoin:miter;stroke-opacity:1;fill-opacity:1"
   d="M 626.69492,176.81906 C 597.088,158.43093 586.44068,138.11214 586.44068,100 c 0,-55.150187 27.33695,-81.910571 83.16293,-81.408931 28.50168,0.256111 51.40643,12.656017 66.56717,36.03735 18.66745,28.789488 15.20905,80.165961 -7.00388,104.046661 -23.94092,25.73842 -75.53508,34.87383 -102.47198,18.14398 z"
   id="path829"
   inkscape:connector-curvature="0" /><path
   style="fill:#009688;stroke:none;stroke-width:4.237288px;stroke-linecap:butt;stroke-linejoin:miter;stroke-opacity:1;fill-opacity:1"
   d="m 638.55106,986.81453 c -5.13165,-0.96652 -15.14225,-8.37682 -22.24576,-16.46728 L 603.38983,955.63733 V 877.37051 799.10373 L 560.41322,730.2722 C 503.36165,638.89818 493.45754,624.77699 488.55,627.81004 c -2.27881,1.40835 -23.22691,31.09479 -46.55134,65.96983 -23.32444,34.87509 -49.94308,70.9442 -59.15252,80.15365 -14.74844,14.74843 -19.11721,16.74445 -36.6495,16.74445 -17.35389,0 -31.6098,-6.33055 -111.22882,-49.39301 -112.23834,-60.70475 -121.37846,-66.68102 -127.10475,-83.10746 -11.053701,-31.70864 12.16108,-66.65208 44.28056,-66.65208 7.83665,0 35.55375,11.80661 70.03175,29.83132 80.18591,41.92025 92.29119,47.26093 100.91699,44.52322 10.43066,-3.31055 30.1647,-37.66729 91.38502,-159.1003 55.02956,-109.15334 92.07511,-195.79747 93.01422,-217.54661 0.52831,-12.2348 -1.08199,-13.59892 -29.10178,-24.65326 -47.70013,-18.8186 -40.90591,-21.80487 -120.35704,52.9005 -26.32721,24.75464 -30.58229,30.59484 -26.45229,36.30644 14.9281,20.64493 14.9513,24.35654 0.27987,44.78614 l -14.09156,19.62215 19.92916,19.3714 c 10.96103,10.65426 19.92915,21.68653 19.92915,24.51615 0,2.82961 -22.55248,32.63514 -50.11661,66.23446 -40.83079,49.77077 -52.13362,61.08975 -61.00265,61.08975 -14.03125,0 -205.158749,-156.07916 -209.266203,-170.89165 -3.234553,-11.6646 0.777036,-17.60155 57.03233,-84.40496 45.917113,-54.52678 49.547873,-56.01045 80.057513,-32.71461 l 19.58581,14.95487 18.32997,-17.98951 c 17.62426,-17.2969 18.85644,-17.7908 32.00387,-12.8282 l 13.6739,5.16132 57.26629,-56.46023 c 76.2123,-75.13958 86.38235,-83.38635 102.8334,-83.38635 7.42091,0 44.64539,10.69645 82.72107,23.7699 38.07567,13.07344 70.34266,22.65576 71.70436,21.29404 4.4022,-4.40219 -29.31665,-41.6058 -49.05237,-54.12184 -24.04051,-15.24603 -55.33589,-27.05213 -90.60306,-34.17978 -21.24929,-4.29458 -31.25499,-9.060721 -44.89914,-21.387393 -9.65614,-8.723741 -17.55662,-16.541933 -17.55662,-17.373759 0,-0.831827 14.28184,-5.752221 31.73742,-10.93421 l 31.73743,-9.421797 22.77431,10.426428 c 32.53517,14.895094 67.96436,38.356756 92.73292,61.408921 21.39475,19.91214 45.58415,62.05918 45.59085,79.43644 0.003,7.4007 12.19512,13.11507 83.68978,39.22448 46.02755,16.80896 87.86924,30.54845 92.98157,30.53219 5.41746,-0.0174 32.81644,-18.80855 65.67797,-45.04458 31.01055,-24.75826 62.77741,-47.74773 70.59296,-51.08772 30.66462,-13.10453 57.09115,6.45362 54.84433,40.59007 -1.21784,18.50289 -2.8081,20.51409 -49.98666,63.21746 -26.80084,24.25861 -62.6661,55.33037 -79.70055,69.04835 -37.9147,30.53305 -48.10139,31.55015 -101.26894,10.11127 -20.22847,-8.15678 -38.83415,-14.83051 -41.34593,-14.83051 -2.51178,0 -17.41585,30.03178 -33.12008,66.73729 -15.70428,36.70551 -38.65492,88.66526 -51.00149,115.4661 l -22.44826,48.72882 34.85081,52.9661 c 50.11385,76.16271 68.19766,111.64428 73.42682,144.0678 6.91008,42.84639 5.85885,180.00796 -1.48852,194.21618 -8.58746,16.6064 -31.82432,26.91911 -52.06466,23.10682 z M 310.6195,388.69375 c 8.32365,-11.68947 8.36239,-12.41778 1.01421,-19.06779 -4.20199,-3.80275 -14.72694,-6.9141 -23.38877,-6.9141 -18.72401,0 -35.38404,-14.29718 -39.26359,-33.69493 -1.39977,-6.99885 -5.30714,-15.01752 -8.68304,-17.81927 -4.98372,-4.13612 -8.04452,-2.75951 -16.27603,7.32022 -5.57591,6.82788 -9.73444,13.55424 -9.24117,14.94747 1.82532,5.15557 77.34685,66.81646 82.17612,67.09414 2.75444,0.15839 8.90246,-5.1812 13.66227,-11.86574 z"
   id="path831"
   inkscape:connector-curvature="0" /><path
   style="fill:#ffffff;stroke:none;stroke-width:4.237288px;stroke-linecap:butt;stroke-linejoin:miter;stroke-opacity:1;fill-opacity:1"
   d="m 629.83155,176.06068 c -22.50507,-11.45911 -33.47814,-26.56479 -39.41859,-54.26414 -10.05818,-46.899671 9.7199,-88.05457 47.17137,-98.155805 39.03539,-10.528439 79.32992,3.015748 97.77856,32.866274 13.11718,21.224033 13.65869,64.014551 1.1128,87.933061 -17.27008,32.92509 -72.13387,49.19252 -106.64414,31.62061 z"
   id="path833"
   inkscape:connector-curvature="0" /><path
   style="fill:#ffffff;stroke:none;stroke-width:4.237288px;stroke-linecap:butt;stroke-linejoin:miter;stroke-opacity:1;fill-opacity:1"
   d="m 619.0803,969.52475 -15.69047,-16.06852 v -79.20394 -79.20398 l -50.75945,-79.98314 c -51.38296,-80.96559 -61.91627,-94.63064 -67.14826,-87.11271 -1.57026,2.25635 -13.18729,19.29474 -25.81559,37.86313 -73.63564,108.27195 -94.24732,128.89064 -122.20221,122.24377 -26.98286,-6.41576 -197.35716,-97.69614 -217.75671,-116.66618 -21.695597,-20.17526 -12.9696,-61.90547 15.42562,-73.76975 18.13915,-7.57902 25.63658,-5.02843 111.21213,37.83403 35.51113,17.78652 68.42676,32.33915 73.14585,32.33915 10.57773,0 25.22327,-22.57699 68.71749,-105.9322 58.86737,-112.81735 113.90049,-235.90594 119.99232,-268.378 l 2.91801,-15.55444 -23.63022,-10.81827 c -33.23332,-15.21472 -50.77303,-17.3768 -65.16098,-8.03225 -17.43515,11.32361 -89.1218,77.95662 -92.03414,85.54608 -1.38591,3.61162 0.3836,10.99777 3.93222,16.41366 8.88152,13.55492 8.22362,18.01355 -5.77044,39.10649 l -12.18622,18.36801 18.56029,19.09714 c 10.20816,10.50343 18.56029,21.53323 18.56029,24.51068 0,10.92539 -89.90442,119.30382 -102.20646,123.20835 -9.15891,2.90691 -54.92597,-29.50012 -130.37954,-92.32004 -57.910646,-48.2143 -80.989049,-71.44696 -80.871305,-81.41185 0.101709,-8.6079 41.360763,-62.59301 77.034235,-100.79489 22.42041,-24.00948 33.0064,-25.41735 56.64282,-7.53313 9.15456,6.92669 18.06925,12.64703 19.81042,12.71186 1.74117,0.0648 10.7895,-6.76971 20.10742,-15.18789 15.04547,-13.59268 18.65948,-14.98351 32.28969,-12.42647 15.23694,2.85847 15.83024,2.40298 81.97358,-62.93297 36.64406,-36.19675 71.53318,-67.67815 77.53139,-69.95867 12.59515,-4.78866 18.41197,-3.46384 102.07453,23.24819 32.26729,10.30239 60.39229,18.73163 62.5,18.73163 8.39936,0 2.83157,-10.03991 -17.47496,-31.51106 C 527.45157,139.54438 492.89945,121.27892 444.72256,109.01302 413.4299,101.04587 379.37422,82.792239 375.8511,72.098346 375.01456,69.55917 387.97954,63.522 404.81708,58.610271 l 30.48034,-8.891506 21.54622,10.811483 c 73.31327,36.787239 124.20594,87.032902 135.4195,133.697882 1.85004,7.69898 8.14775,14.33549 18.72343,19.73081 24.10262,12.29624 147.85339,55.53259 158.945,55.53259 5.62411,0 29.28729,-14.8014 56.12496,-35.10635 72.7694,-55.0562 84.5222,-62.35128 100.45135,-62.35128 20.64903,0 32.81415,14.28132 32.81415,38.52233 0,17.77891 -1.70843,20.56537 -28.60169,46.64944 -36.78208,35.67536 -87.04831,79.40903 -110.80526,96.40511 -24.31864,17.39795 -43.52029,17.39153 -91.34529,-0.0305 -31.44415,-11.45473 -37.52665,-12.51646 -42.48081,-7.41525 -3.18012,3.27448 -24.27317,47.90278 -46.87347,99.17396 -22.6003,51.27119 -44.76852,100.48081 -49.26267,109.35475 l -8.17123,16.13436 35.63894,55.89954 c 75.39191,118.25186 76.44547,121.55906 76.52619,240.22152 0.064,94.21077 -1.35136,101.21716 -22.67547,112.24428 -20.80974,10.76115 -34.76652,8.17555 -52.19097,-9.66868 z M 310.47264,389.9838 c 13.65711,-17.36221 9.01306,-22.88061 -24.87942,-29.56353 -19.37588,-3.82053 -25.02671,-8.79147 -34.12656,-30.02057 -10.25693,-23.92843 -16.04077,-26.53497 -28.00814,-12.62207 -5.44456,6.32968 -9.8992,13.21448 -9.8992,15.29957 0,5.23713 76.74261,67.77026 83.16976,67.77026 2.85902,0 9.04361,-4.88865 13.74356,-10.86366 z"
   id="path835"
   inkscape:connector-curvature="0" /></svg>